<svg width="58" height="39" viewBox="0 0 58 39" fill="none" xmlns="http://www.w3.org/2000/svg">
<g clip-path="url(#clip0_1_44)">
<path d="M57.9912 1.81061C57.6373 0.132974 56.4943 -0.0753487 55.6546 0.0199462C55.0171 0.175077 54.4918 0.684793 54.1489 1.11251L51.3858 10.5423C51.4715 10.5977 51.5573 10.6597 51.643 10.724C52.6475 11.5019 53.1223 12.5147 52.8234 13.738C52.6569 14.5131 52.3287 15.2436 51.8606 15.881C49.6405 18.6268 44.976 23.0525 43.9473 23.9478C43.9473 23.9478 48.282 17.3592 49.9438 15.5708C49.9944 15.5153 50.0427 15.4577 50.0911 15.4001C50.0911 15.4001 50.0911 15.4001 50.0911 15.389C51.0143 14.3895 51.7155 13.3014 50.6736 12.2266C50.6329 12.1777 50.588 12.1325 50.5395 12.0914C49.2998 10.9833 47.7941 12.7429 45.9235 14.394C44.0528 16.045 40.8963 17.6163 39.5489 17.911C37.8717 18.1925 36.2011 18.5227 34.5393 18.8795C32.561 19.305 31.0816 20.4707 30.2683 22.3256C29.8287 23.334 29.4133 33.7699 29.011 34.7959C28.6065 33.7699 28.1955 23.334 27.7515 22.3256C26.9381 20.4707 25.4698 19.305 23.4827 18.8795C21.8187 18.5227 20.1503 18.1925 18.4709 17.911C17.1213 17.6163 13.9757 16.0472 12.0963 14.394C10.2169 12.7407 8.70902 10.9722 7.48026 12.0914C7.43107 12.1324 7.38548 12.1777 7.34397 12.2266C6.30426 13.3014 7.00326 14.3895 7.92648 15.389L7.93747 15.4001C7.98583 15.4577 8.03418 15.5153 8.08694 15.5708C9.74873 17.3592 15.0968 22.33 15.0968 22.33C15.0968 22.33 9.98833 19.9521 6.17236 15.881C5.6602 15.3358 5.39422 14.4915 5.20958 13.738C4.91063 12.5147 5.38323 11.5019 6.38998 10.724C6.61573 10.5476 6.86144 10.3988 7.12196 10.2808L5.06231 3.26219C4.78095 2.67269 4.53695 2.17406 4.31274 1.75299C4.28856 1.70866 3.50823 0.296966 2.36959 0.0199462C1.52991 -0.0753487 0.391268 0.132974 0.0307739 1.81061C0.0105918 2.45447 0.0696632 3.09837 0.206629 3.72759C1.37823 9.61149 2.62457 15.4732 3.74562 21.3749C4.28636 24.2337 5.93277 25.887 8.6035 26.707C11.2742 27.5269 13.9296 28.4666 16.6245 29.2422C18.3127 29.7298 19.3612 30.6628 19.6843 32.3183C19.6909 32.4786 19.7152 32.6377 19.7568 32.7925C19.7722 32.9366 19.7942 33.0829 19.8184 33.2358C19.8909 34.9577 18.66 38.7318 21.4692 38.9978V39.0177H36.4978V39.0066C39.417 38.8183 38.1596 34.9821 38.2322 33.2446C38.2563 33.1006 38.2783 32.9543 38.2937 32.8014C38.3364 32.6468 38.3607 32.4876 38.3663 32.3271C38.6916 30.6717 39.7401 29.7387 41.4283 29.2511C44.121 28.4754 46.7675 27.538 49.4471 26.7158C52.1266 25.8936 53.7642 24.2426 54.3071 21.3837C55.4238 15.4887 56.6723 9.62036 57.8439 3.73645C57.9742 3.10345 58.0237 2.45626 57.9912 1.81061Z" fill="#17B582"/>
</g>
<defs>
<clipPath id="clip0_1_44">
<rect width="58" height="39" fill="white"/>
</clipPath>
</defs>
</svg>
